<svg width="207" height="181" viewBox="0 0 207 181" fill="none" xmlns="http://www.w3.org/2000/svg">
<path d="M177.213 161.956L161.06 153.456L149.801 146.956L134.213 137.956V100.456L103.213 82.558L72.2128 100.456V137.956L56.6243 146.956M149.801 146.956V93.4558L103.213 66.558L56.6243 93.4558V146.956M29.2128 161.956L45.366 153.456L56.6243 146.956M161.06 153.456V84.9558L103.213 51.558L45.366 84.9558V153.456M29.2128 161.956V76.4558L103.213 33.7319L177.213 76.4558V161.956M177.213 161.956L189.337 168.956L204.926 177.956V60.4558L103.213 1.73193L1.5 60.4558V177.956L17.0885 168.956L29.2128 161.956M189.337 168.956V68.4558L103.213 18.7319L17.0885 68.4558V168.956" stroke="#213455" stroke-width="3"/>
</svg>
